/* XPM */
static const char * USTC_logo_xpm[] = {
"256 64 90 1",
" 	c #030633",
".	c #060255",
"+	c #020829",
"@	c #00074F",
"#	c #060B19",
"$	c #000A43",
"%	c #040F28",
"&	c #000D79",
"*	c #001266",
"=	c #001175",
"-	c #041462",
";	c #081755",
">	c #101741",
",	c #111A39",
"'	c #171B72",
")	c #0F207C",
"!	c #002299",
"~	c #102176",
"{	c #18244E",
"]	c #1C216A",
"^	c #142563",
"/	c #172387",
"(	c #18228E",
"_	c #1E2C31",
":	c #002B99",
"<	c #11298C",
"[	c #1E2785",
"}	c #292D44",
"|	c #1A2E8A",
"1	c #1E2E84",
"2	c #1F2F93",
"3	c #28325E",
"4	c #28317A",
"5	c #273370",
"6	c #113CA4",
"7	c #2138A9",
"8	c #2339A4",
"9	c #163F99",
"0	c #183FA1",
"a	c #253D99",
"b	c #303A99",
"c	c #303F8A",
"d	c #3A416F",
"e	c #2443B4",
"f	c #2444AE",
"g	c #2545A8",
"h	c #2647A3",
"i	c #43486C",
"j	c #384987",
"k	c #414C63",
"l	c #474E55",
"m	c #414C99",
"n	c #484F7E",
"o	c #3456C1",
"p	c #3C55B4",
"q	c #585E8E",
"r	c #5B6085",
"s	c #5062AF",
"t	c #5664A6",
"u	c #616970",
"v	c #5F6A82",
"w	c #696D93",
"x	c #616F9F",
"y	c #6D7BB9",
"z	c #717DAF",
"A	c #777E9E",
"B	c #6E7CCD",
"C	c #7D8989",
"D	c #7C8B9D",
"E	c #868DAE",
"F	c #808DCC",
"G	c #868EBB",
"H	c #929ED1",
"I	c #99A0C1",
"J	c #92A5EA",
"K	c #9EADC0",
"L	c #A4ADB5",
"M	c #A3AFE3",
"N	c #A9B1D3",
"O	c #B7BEFB",
"P	c #B8C3D1",
"Q	c #BCC3E5",
"R	c #BEC5F5",
"S	c #CBD7E5",
"T	c #D6D5FA",
"U	c #D1DEFC",
"V	c #E8E8FF",
"W	c #DDECFF",
"X	c #EDF6FF",
"Y	c #EFFCFD",
"((((()))))(((((((((((//)))[~~~~|((((((//))))))))/(//////))))))[)////////))))////((((((((((////)))))//((!!(((/)))///))))/((!!((/((!!((///))//(((////)))))))))/(((////))))////((((((//////)))))))/!!!!!((((//)[)))))(((/)))~)/(!!!!!!())[))//((//)/)))))))//////((",
"(((((<<<<<(((((((((((///<[|||11)(((((//<<<<<<<((((////<<<<<[<[<<<////</<<<<<<((((((((((((////<<<[[[</(((((((<<<<//<[[[</((((((//((((((/<<<<<<<((/</<[[[||[<<<(((<<<<<<<<<<<(((((((////<<<[<[<[<<((((((((/<<<[[[<<<<<(<<||||</(!!!(((<[|[<<(((//<<[<[<[<<<<<<//((",
":::::<<<<<::::::(((((((((////<//)[||<)<<::::::::(///<<<<<<<<<<<</////</<//<<<<<<<<::(((<<//<<<<<<<<</(((((((<<<</<<|||<<((::((<</(<<<<<<<<<<<<<<<</<<|||||<<<:::<<<<<<<<<<<<<<<<////<<<<<<<<<<<<<<///<<<<<<<<<<<||<<<<<|||||<(((:::<||||<<(((/<<<<<<<<<<////////",
"((((<<<<<<<(((((((((((((:((((:((|1))[)/((((((((((</<<<<<<</<<<<<(((((((/(/<<<<<<<<<<<<<<<<<<<<<<<<<<(((((((((<<<<<<<[[<<<((((<<<<<<<<<<<<<<<<<[<<((<<<<[<<<<<((<<[[<<<<<<<<<<<<<<//<<<<<<<<<<<<<[|[[[[<<<<<<<((<|||<<<<[|||[[<//(<<<[|[[)///<<<<<</</</</)/)////",
"((((<<<<<<<(((((</(((((((((!!!!(|[)))(((((((((<<<<<<<<<<<<(<(<((((((((((((((<<<<<<<<<<<<<<<<<<<(((((((<<<<<((((((<<<<<<<<<<<<<<|||||<<<<<<<<||||<((<<<<<<<<<<<(<[|[<<<((((<<<||[<<<<<<<<<<(<(<(<|11|||||<<<(((((||||<<<|<<[|||||||||[[<<)/<<<<[<<<(<(<(<<<<<<<<<",
"::<<<<<<<<<<<<<<<<((((::(((::::(<|))(:(::::<|||||<<<<<<<<<:<<<::::::::::::::<<<<<<<|<<<<<<<<<::::::::<<||<<<::::::<::<<<<<<<<|<||1|||<<:::<<<|||<::<<<<<<<<<<<<<|||<<<::::<<|||||<<<<<<<<<:<<<<<|11|||||<<<:::::<|||||<<<<<|||1111|||<<</<<<<<<<<:::::::<<<<<<<<",
"<<<<<<<<<<<<<<<<<<<((<<<2<///<<<//::(((::<<|1444||<<<<<<<<:<<<:<<222:::::<::<<<<<<<<<<<<<<<2::::::::<<|||||<:::::::::::<<<|222<2|1||2<:::::<<<||<222<<<<<<<<<<<<||<<<:::::<<<|||||<2<<<<<<:<<<<<||||||22<<<<:::<<||22<<:::<<||1111||<:::((<<<<<<<::::::::<<<<|||",
"::<<<<<<<<<<<<<<<<<<<<<||)*.....=/22((((:<||1444||<|<<<<::::::::<<<<::::::::<<<<::<<<<<<<<<::::::::<<<|||||<::::::::::::<|||<<<<||||<:::::::<<<<<<<<<<<<<<<<<<<<<<<::((::(:<<<||||||<<:::::::<<<<2<<<<<<<<::::::<<<<<<::::::<|1111|<::(:(/<<<<<<<<<:::::::<<<|||",
"<<<<<<<</6<<<<|<6/22||***@]@-^;@.***=b<<<<[|1~~1||||<<<<2(:2://<[|[)2</8::::<<<<:(::/22/6//8(:8:(82(22[||||<<:::2:(:!7(2<[|)62((<a</6:(7::((8(/6/2(6/<2/<<<<<<<<2(::((((::::(22<||||<<:::2:((<<<<2:</(2:2:</(22(::<<<<(:!77:(<|~1|<(::!:/))|<)22<<<(::(:::<<<|||",
"((((((((<=<b|))==|)11..@$jyRUTRMq^$@@-]1*||))2<=||<<<<(((/////<)~~11))<=/((((<<::((((<<<)22///=<:==<))<||[)<<:((<((:!!7&)11[=<::6<2(((((((::&(:&<</<6=(2((<<<<<<::((((:((</&/(/<||||<<(((((2<<<<///28<((/(<<</<<(!(/<|:(:!!!:<||||<(::(:).~1)|&(</6=(::(::<<<|||",
"<<((((((2<<)[||1111..4JYYYUUYXYYYYXUx$$@m1/(::!:([<<<<((<22<<|['@@@49~|2/((:::(((((://'|111*.==|b|||<|<)<<<<<<<<)2(:!&f<)~4*h=(7((82(2222/=:22(/2)|/)6//((<<<<<<(:((://=[||<<::2||<<<<((2(22))|)|b</)<<<<<<<<<)27!()|1'<:!!!:(<||<:(!:([*s]-s=62||=22/2(::<<<|||",
"<<<<<<<</0|[a|~11.@-mTWWUrTTAENEEQQWQGx5$-a2!!!!:|<<<<<</<2[[)'~ty^@4~1|<<:::<::(:(/|114-@@4]-~@.11)|b<<2222<|||19=28(/)4@@4m[2!(::<2)|1.|a)<//<)1h=[<<<<:<<<<<<::((<|1c~@*1|/2/||||<<::(:<<|1~**~~.*~1a||</22<::!6|]--92:!::(<|2/:((:)*4WM$;cb=~1h[)<2::2<<<|||",
"<<<<222</2)||~9c-$;RWYM3 +Ev,,#%+ +EWYUw;@-|:!!!:|<<<<22<<<|1*~sRXH^@]4)<<((:::2(:<[1~@@;;jMROy$--~1[/<2(<2<[||4^^.'=b1c@t^;@h<8:7(<|1c]]@]1a)b[~1.'b[/<<<<<2222(::21-@;5^]-~|</||<<<<::(2/)a1.-^$;54-@-~1|<<2:(!(b-@;@-|2::((<|2<:::/*^YXWQ 4911~.1|</(:<<<<|||",
"<<<<:::<2<)|)9m@$xVX3  ++TNii3,NWM{> }IXUq$-a2(8<[<<<<<<2<|11*cJHNURj@-a|22::::</<|1-@;jRYWWYWYYH]@c1'/((:<<|11c;$@-@14@;XWx;c|/:(/a14j$Rj$@c''[1@**.bb=<<:<<<|<((2|];$ qRM4-1||||<<((((/2[|1*4FGiAWYM^@-~||/(:(:/=@jzq$-|:(((2|<<<</=-nU%KS $-1~@@*||//(((<<|||",
"<<<<:::<<)|||1*@GVXr Gw>+RYM3 HTVJ^ ++}kUUz;;4~)[<<<<<<<<<)1~*mOA}IYMj@1|<<::::(2|).@jMXQIrrEArwWt@-1[/(((:<|145>AUOs@@;XQYQn$s/:(<a4;$3YWz@@*..**U1..b<</<<<<|<8:<*;xNIEWYF]-|)||<<((((=/|1-]BWQDKPQUMy4-~b((:!:/.jRYUz;~<:(<[|<<<<[.^NS#CYQ @@@cW@*[6/(((<<|||",
"|<<::::<<)2)9-@UYM{+wTN>>{RI{+Tq4Bj^3n3 IXQ}>^41||(:::<<|||11@jRE,{zTTj@@-'/::::<1-;nQYTw%%}kk%iYUq@[2(8(((:2|4^wUYUU; >Y%,QY$~[::<)j; XWYRq$ts4]UYJc@.|/((<<||<::1-3NYWNrNXz@)2||<<<<<<2(:<*cFIDPXu}NXUt-*b((7:&)~JWUUN^][2:([|[222|.jXD#CYYT5$jYWF]@p)/((:<<||",
"11::::2|||/a-$wWt@ >UYI{3 xn{,#%xR3,EVUJ^wXPl>'<117!!7<1116:)-zQA3;;sOH >>@*<<(2/~^IYP%%}KYWWYUAkUI;&:6)<(2(!:4{WQ>;Wq+,X, xYX@26(6|j +X >RWIQWYXY3UYT;~2(2<|||<!(.jQYlDUw%KD{=&/b<<|11|::!!=4EDuPXL##rNRt-'28::/*cOM}uYN$.<(:2[||<2<*jT#_LY_YWYYT3WG$^c|<:::<||",
"41::::2|9)p)@^Srj-$qUirN>{zRNTKKE{#KYHmp; lYXd./11:!!721~1/&=]zQw{^]sOG3IUH^*//2)4zWL__uSWK}kETQ}WQ5(!2|66=(e&${XE+^WrIUU} $vY@[6(()s{+W>>wYWvQRRn%#DXx.<(82)|a|=.@xWC_KXN_LXI1&=<2|~14|:!!!=jICuLSSD#}QTj-~22:8|1-tRi}KN @[&(2a[[(8(.mXP#CYP,MMAi%YYN$^|<:::<|1",
"11<:::<|)*p.jWY,;jn T3,E3RYYWYYYI3,EXH]@t{#uSw.=1|::7:211.=1*^HUF;@5JXRQUYWF4=(2@jUUi#kWYXK%% EN}SN5=!(2/|1a(=5XWk{UrXNIY+t@%X$'/8!(9@ Y>+rXYDAq$ %_DUq-<&:<[a|*t5jMSlCYXD}CYWMs1=2||11|::!&'yQDlDPWPvrRH4-|2<(<<|@qXE}vQq;]-*~11a((8=*5UlCYP,Gx+++AXW$s|2:::<|1",
"||2222<||h]$HW,U>zU>3, +TWYRHAQUXXWi+>445zk}NYy.)2:::<2[~-~-$jTUt]^5xRRUEiIYJ~&=5qRx nUWSSXK3dQQ}NKd=:2<2|44).nU%+EYYUn>W+m@+Y$@=f!7g-;UM }PYYI> dSWWI;1/(:<|[=]QIQWN_PYP}kPCuQXs=/||a)2(2:=-xQDkKWSSWXM5;~9|<<<6)-qWI}wYUHHFj@4[a:!:2~^WXLlDUHxw%,YWM@c|::::<|1",
"<2222<<<|c@MXW,WXTTA,%iUYnjqd3rwdzXN3+>^GXQ},IF4'<2<<2|'cROqGWWJ1'45>3qr{+AXM~&=qYR^@jYPl#kUw>AQ{EWE.:8(:|j$@4U  QS#YYx+idc@$Y+;~o!!:=@$U3AWYXi$ TYYD,$a:7:2|==BWPAi,}PYA+QYu#KWs=)||2/2:|1@$xNArSSkiQRj;-9|)|b</=@xWE3zTHTWWM;-12(:7:=@3Il_UW>dUWQXq$j~2::::2||",
"22||||<2|m XW}#EXWQ,%wUUG5$^tM5$$jHRTz>+IUz> MYy~/22||)~BWWUURq^[[]jrAzd+iQQd-:=wSq;4FRi##iUx>vQ>zYQ@<8(81> xYU QWY##WR$+xb*^WY+@|!!!6m$HXVYP#dxMT}SE 41::(<a*=BUDv}%rUYF^wAuLQz1=||<2::6';^nMRzwNr+wURj-19|)a|==. rYIdHTGivEUR4~0f:!:as ,}KU+{MWXir^$t12:::22||",
":2|11|22|;dUD%r+IIi%TYG;jy]]FXc@jj;tUUA,In;5;^NR4=<22|*4OMGNz3+@/61jRYQriIUA;~8.wQx$4tn3rdqRn+vQ;xXP$18::9>DWQ{QVv#Y}Qx$M$bb@+Yk;-o!&:c@ UYP_#HXXi#SQ3-|:((|91=4TNTN}ATXB1+%DWM4'<a|<:::2-dENUMniwrATRy4~|a2|1'~mt^wTAnGRG +iER^*|2(:8[@${KYW,RRIT> $j-|22:222||",
":2|11|261$WYu#i 3,%UYd5t;441~c~mj;@yqzWW} ^;@^NQj.<22<.jMQd>>>>5b/'yUI}kUUv ;c/)xUz^ dRXRxyRn3KN$xXP;1:7:.}WD,NYVv#Y#Qn$W$bb4 YXr$p:8b-$XWu##XYj T}DUW]|:(6|19|*@FWE}NH]=*3QYE^=26||2:::=4IYWQx$+iIWM5-~a2<<|'~sTUTWUr{ >{GWXM5;1|28:/=-qXYD%,ri+{Wd$-m|222222||",
":2|11|26~$W}lSX>%iQXq^5j-~ma*=)pyy-]5nQWA>;mBFIQGc=:7(@nQNd$$nTRc&bst3kPXKd;ca)'tWN},EXTB.mWQTYQ;xXP$487&4WL}kTIG _Y}Wx$O@=pB %YYi@ap'$TX}##CYWj TP}AW~28(214~h*.4RI}Qq^~mMYD *<62||<:7(*tQPl}^5GIGq5@-|2266)*sUMEQG33+iwMXROF@4c|<b2=~OUA}#}WNEIr>WF.1|222222||",
":2|9||2|-$W%kXX^+ATV^jm-mc11bb/[BRm*mniKYn5OVJrEQt=!7(-nQQn$^zURs)[1;>vPKQy]'a|*cRQkuSMy1)~tNKKP^xXP>48!&4S#lQT+$EY_WVd @B)pF %DYY$B-$3Yi##uXDOONU}%AY~):8|c4-@*@mUH}}ANy^wUKi*=6<|a2::<]^IPv}^tRTz^$-ca28(/[)sWI},3>>rNUMys-.441[|b=.BXT%,vXYWYWE>XW-=p22222222",
"2222222'-qY%}TXdrWX^J^@cm~11|b6=cJB1-^iQWIyOJt>wQq=!!:-3INn$^HWTm'bc]^,#kQOh&/|~~yQuCL{tppb4GkuS5yXP>42!&BU#kUQ >NY#X >qt-11;q,%SY$t$xYY%#CYY%HWY,%DUXc<821c@4444OYG,#LXD%%kQQ4*22<2<221;;ESWTxnMYUF5-c|<622a''tSDiwq3IXN+$..|19|a|)1JWH+}DYXTQYS%3WR1.222222222",
"222222b*@UY, zO^UWV^t--4.]]~*1p*4tBB~]qiQWFj44$qQr*!!7~;EUH^$xTI4*11@;rINTJ6&2a~~yQuuP,@bpb4G}lP5zXP$42((]XSYT+>d{_YW$GUF.s@$XNWIr^@^UX##PYX#vFt3,PXTj.<6<4;;JWJOWF^+CYYCkKvEQt~)62(<b1-$xUIAAqzRRMUF@*a2622a|*^vSXYM>EYUr;@)b||<<[~4JR +DWYUkw3}SWWy*a622222222",
"|a2:::h.$XH>;j4$UYQq@ss4]B4]m1c~jtpsm45 QYG^;4@tUE](!7<]$GRy;5Ax4c1@^zTXUJ9=(82']FTvuWEq1'145vSP{zYP$4686@}YTx3T>+}U$@EYj@@5HYdXn$t@xYX##XYX_U3$+UPNn;9</h4$MWVRHy^$iSYYLvPkAWG]'28221-@nRG{qNEnzd5HJ4*[6<(<2a1;}KYTw3IWUYMj.)6226a1]FUi,kSWI{I,}Yvn;.p<222|2222",
"1|:!7:p@$Ud^^4@^UUEx$OJ4JOtHR4]4jtspb1;5NYI^^1.sTN4=!781-jOXMd $41]5HXUF4~=/28(=jRNrvWUG5@.]5IYP>zYP$~b2<*iXG >T+AWG@c{+@B;zYU @@~B-5WY##XSuSY{{TYk, ;962a@$Rzjt;@;5IWPKQWYkDQj-|2:82~^nRWx^GMr+  5HOs-'2<262|)@iNYE}EUI,IWM4*28(22~@xUQ#}DWAIq,_S% ;1a<22||2222",
"41:!!!p@$U;411.4WSix;OFjTHxVU5;jtjchpp-^MXI{5c=mRQj':77<~@nQXH>;c~tUXG5@*=/266:=xWI{xYQ >^@mORDP wXP$1b<=~UA;$V {NU @4i%$J EY3$-)62~$NX#vVv%PY,rUYW, 41<2';MWq$@.-@dUXT54OTkDN4.|2:8<-jRUw$^td{vq;;FUF-1b6282/|sWQA,}VVE%}vUM-/!7:6h4;rU}}DXQR$rYY%Gj@p022||2222",
"41777!p@ X$4]11@USkr;tscFynzF5@mss~1pa~jHUNd^-.cQUj*/::814;{MWGn-@xUG;@=((2222(=xUq$xWN,,dHXTrvP+vWQ;1|==sT, qx+}UU ;yEPM$>EX3@hg:(p@dNXWSDkXY3qN,QYz;|26*@RH3 $@c;xTRVt-4n{EWJ1.|88/~xWN3$5txvDNx>{HOc*)b<26=<JTr#}KVIII#,KXJ&!77:24;{vWDKXQT;xYYDYMj-9|2222222",
"|0::7(p@$U>;jmb@USkn^~h1*c4@]-smpmm4mc~4GUN3^t5dNUj*27:2|4]@5MUA{;xOm*[8:7:::8(*tRd>zXUEvQYUQQSP#kWR@h|=*JU++>{U_uYIiSYYV+ IWd.a26<h1@;MYUKEARm4^ {TUm=/2=]RRd;yF5@^xTYVG;$5qMXRj@<7('zQv} nTQuCSI}+xWRc*1a22=<BUD_CWw$zRd%,zO&&8(:72- kYYYWHJ4ySuDlWW j|2:7::22",
"a62:7(p.$W>+xJb@USix4'[['1c~*mBp[bs4ca']RXI>^JxiNQj*:726991-@yQE,>zOm'/::77::2)*xN3{AYYQQUNkNWQ%_KYM@|a)~FR +iUU#uYXKKSWQ +IY$~6|h2<61-$WWD%3x]4yG>UUm*66|-;RRMRYG; nMWYI^@;;;rWE5=(:[zNl%{qTPlCXKk+iROt-1||6//cHWYWI{;tXR,%zT6&=677:*dKYLSQt@4^,lu_KW j1277::2|",
"a68:7(p.$W{ qT'@TUxs'[2fbb*1ps11b1mcm|=4RId$4JtnQQj*:726a|91-tTQ3rROm*|g:77222[-wQk%,vEviid>nqn kWTt-aa)-4YRHMWU#uXN3+IYI#%SU;p<202(ga~$iYSDNU^jNYxWF41|ba1@sUUMFTqdGiir3;qd+ {wUz):(=zQv#iMYSlCSUEARUy^~1a|66/=4FTH5@*]tRivWR-)a0:!&1MW#ll}^yj$,VKEWX$c|2:77:22",
"a6277:h.$Ww>nT-]^GUB*)/=..~.]c@-*@@4a|=1Rz>^mB4jQH4':726a|aa'cHQrARy4-1<2222aa1]rQQIr},{wGGz$ $3NXx@19||-^OWUG;MUXU$@;qXS#uYY$s62<8:8<cj+UYKWQ>{NXXt4@c9||66.BB4$TGiwwwqxzTTr, GWz)((=yUKkzRRIulQXWTRy;]19aa262)=)1~*1b*mRNUQ3@19a:7&1GN#uDrdX^qQYIXH^;ca2272222",
"62:872a.$YQ>nO@t wY^@1mmmjtyn$Ftmmj411bmOz;^sB'tRz]):7260062[-jMzEG5^cha222aa114;qRYUHqHUTRT3{{xXM5@9aa9c-^Fj^@^YXT-)*4HW_YYQ$p/<2f((2a] WYDk,+rUY^@*9m~|277!=1@@JYE}QMOTURUUr>MUt)(:=^zUQMyqIWSQGHHj;-11|66<262:&&(2f8/.jRUw$c11a88:.5YXuKYYT GYH;F4@paaa226888",
"62:878a-;RY>>Gjj>AX^5ttFMRRYQ3QTOROFm~mJFn$4Bs*tRq]|:726|0826'cOWUH5;]1|a00aa999-]sFOUUYOnqUURRWF^-9220a)c@]]~1*sFs*p=~HY#YP+4h6288:78|*$WYW}++EXr;.ah1h|6!!e&|~.]MUQWFyJF^3NYXXq;=:82-jMYJ]@jNYH5@^4~1a02262222::::::::)~j5^]9|9|28:=4XN}vVT+ ITn@-)2g20a9aa688",
"6288:8a~;dX>+qR^+wXz35qFGqxiIWrnsByJy^cOF^;tJm@xRq-b:726268::=~BUOj;49h022660aaab[==aBBsj@$tRWRF-.)p2262a91~)|0</)'|8&)tX#YI;s)268:7772a-tHRWHURH$]900|22877772aa~jRUq-44]@;jHOt^]2e:8*]jym~']qMyc.*||268828862288887778:<..ag:86<28:/~5XQ3 +>IXU@*|:e::6a99a687",
"6266(6a4^$W{+dU>+nTWdnq5^^$$5O5$~~-jn3nTt@]sF53MUq]6:726a28:82'cJF]49|262266622268&<=.'.*4~@mtm-.p68888820a|268e!&|a66=-YYXq@B260f:7:77g=-^tUFWF--ha6:f8887!:8<0p=~ct]~*')94-]m4]c67!e61'.=6b1-;1~ah26f::87:88222<6f8:7:88/8!e7!26::f21*JWM3{UYRj@p8:e!869999687",
"626682ah4$WG>+V3$;tU5tt@]41~1~11=[]${vQYj;cJq AUE4*677<a|h6:8g1~*~~1a6262:8886262aaa|))[[p2</&=(8877:e:66<668fe777a9aa|-;W5-/8g|0688:7e:g=|~~4~~)260(:e7778262g<2g2=)[h||6:8:<'~ma87!7e62)<88:['|a06887:777::8820|022f82:f:e7!77e28f266)*yUTRWH^@m0f!77:69999087",
"622622ahm@WWw rU5$$RWt;ms*b[)=[b[)B^iKWWq@sOd%KPn]a6::09h1b66b1c))|b26g288(88:726haaa06662f8!77!77:78:82/gg:686:e71cc414;O*=e!2h|h22o8(8f2/</==/7e60g:!!!72h1h666877:6a9a27!7:|99a8777::2287888gb|66::7777:78::62a62f2<6a2f:7::o660|hb2a=-jyqq^;]m)2777e6999|288",
"226622a91]$XG ,QG;;HWHFt-.1pb)bb[.-qNYXr$;sy{kSK^]68:8a~-..=...*1aha<==/gg66888f8g62g06g<=/(=(2o888822g6gg==/)=6&.4;@jtj@..=(o=99hap<<066888g:287:6|ag77e894@-.))<&&&&**|ge!7eh1*.=(ee78gff:2f(&=.)ag68878f86666g2:8f0h1~.==bp*.))~*..=<B~@;$^]cmc|687f(2a99a268",
"2606620a9s@UXi%IMn> UXWMjtsc1c1mss]OXXS}$FF5+KSw^12:781c4jcc14j41|[')1a1))a|<2)22:/<6<)a)h9'1~*|</<2|p)'aa=h1c4-m1@n55^^]mh)/[~c11h*hhh'|gg=2g/ff()h9'(:(ac;5jm1~1a)a)mc4|&e7:|-cm9=(:((<=hh)22|hc1~[|<22/<<=)|[2(ee&|c-;m111^^q4.^q^4c11-4j5^44]]s~|<<p2aaa0066",
"2000066aap@yWY,Ixq3+#SXXWMx5tFjnzRRYWN,+xOy>,NG$]a87e/~FUOJRROOOs**~cOXJ---]~~~'/(&/)'*~JXF^qyq@-'*~cc--.*BXJyU5YF5XU>$$jXWOs@-c4@@;4tj@.s9=.ppa1*@4c-***]@jRWO44RFJWFOOt.=a)*-jJWRs~==)'*cc~*9JUUF4.-~h|'*)'*'~'<f6=~$^zRJOF;EWH5GUNRYJ@mRYU$-~@-y4@.'pa6626602",
"600000062hm$xWI+;HX}%}KWYXYXRqUWXYYJx3+wRG{{QRm'|077e=-FUGtOWMMUFjjtyHUOyq5jtjts1pBm4cttRRzRWWN34stj5;yJB]WF>3XEEUR5U {MyWXz>nW$4T^X$ $Xj@jJB-s^$FU5^ytJj;$RXytFGqUNAUzxqjFc-jtMHHTRt4sBBy^$jttOTHj5tym@mBBsBtc4sh=)sy3AQryRMiS_zYP_SDnT;tzNU$mBBt$;FO-.a68:260a",
"600000060[s]^UX{@mMxI+%iIRRTF3RQPLG4@$xTz^+rUx=!6g77e<]qHw3zMzETMHFMRzwQNIGGGGHMFMMGxHRGMxqWRHHHHJOz^qMRttO ,KPS#DY5RRwxX QIKEWtFR5W3irQR>qUY$$dEQUqxUNAQx5OO53NIAWC_PEwxHRxwHHUw,rQHFOJHMqqHMMOndzRHHHyyJJJJOJyJy]mOHEUN+xOHAL_AYLlYu}UMRwiUzOJyU^RRzU@|87776a9",
"000006666|9m; UY;$^zUi> $;^@@j; #%$@@yRH{+wUH4&e8687764^qznnzzIQHzqzMHAEAEXIENwEUNAAEUQrwEIQ{>iGWMRH3YH^xR >IS#Y##AYGWw>W3iWXv>XO>X+XYY%NXN3UU>wWK>UWqQ3NYXt;$qEiUXC_CYTRHnNYInHIi dMUHxqHUYIrHTr}IWwqRWHjxFtFURFHFHMiKSv,GTTE_PA%lYYl,iwUEkXNFjnRXWd>Wj=(87780a",
"00066888f6|p]@$WYv%%IRMt@....@@4j;$yRRA +EXRj]a6668776|~tHqdwEQQwxxqzzxw3iQUIAk%vIrIN,iUUikNkAIkUIUN3UnnGGN,IS_S_#%,W+wU>M>IYr XA%W%WK}X,WUi+UWi,U>URnqnqMOtF5qR3{QEkPkITd>AErAwqxqdzMznzrEEADAAAvEwANn3GRqdj^xYMqGErKuDKkNwAKlPw+{iIkkQ}WA}UU+AQ,W,5FqW=&p<7786",
"00066888(o2|pm.HWSu%+xFFJshs1msssFtFz3 ,IWR5@4h90668862~mtnGEiEQwzGqxxqMz3dQIkDKEI3rWI,rQrrQkIK%%ETUz+xUN3QkvD_YWK%}U%AWrdGrdz>Yk#Y#Yv#WQ%kU%UirQQ{GRqtFF5;MUnnz3+QN}QkrEnxG3iUQxtFtqFzxGwAwvEDAEAEvAE3dzxdzMqdRRrvEuLuuLlPvvP}SG^ dG3iQ}Vv}WU,EW,Siqt^W&&p|8786",
"00066888f/6a[9c@UYWi++$5RyyFFJTs4FMq +>IWG^@c926006666|~mtnGEiIQwzGqHyjHTn>IIkIWTr>3MH3{zqiQ}AYQiEAwM>qUR{W,kA}SYYW#%%AYW,EA> YXv#Y#Xv%WY}%AYY,vX{ RMjttJ5$MXj5Gd+IIkPvki3QWi}QYx4yytHxqGwAwrEAvDrvkAErEA+nWWw{wQrvKlLuuLlKuuK_DM55UM>iQ{XA}WU ET,WA;^zU.=h18866",
"00066688f<6a|9m4@jUWYd+   ^jtty4$;$  xTXq;@ch622a9a666|~FJqxMRUQiir3n3>qIiAXN%#vIidGGww{{}iQ}%DK}QE+rT>+iIr,KW}S#DS_W###X#%AX+,YD#Y#Ku##WXk%}UYv%,%Er>>;$nH{> zT3vUE%vkQN{3IE}}Qz$$ >qnd3ivAvvkkkvIErrrENNWWQr3Er3AKlulDK}KKvKK,AXGEUr}V}Kk%AE,rE,K+$^;W.=h1686a",
"aa0066668g<2h99s*.]mUWRIA{ +;$$;;>GRUWHF;]9a28e899aa0a|~BOUUWRMQPPPPSSSSPWYCuPYLXSKSSPXSSPLYLCLSlWv%}WNNUYWDWS_XCPYXuXKDYKDXY#XYPuY#YYY#XPKKX}kDPYCSYSKSNUWDWPSW}EWPKSDKSQQQQKKSSPPPSSSPSPPPLPYYQNQNQWQAiriiINII3;qISUUYUIWN,iYQKYSLYPLYCYSLYYCPWAUEOWRR.)cca299",
"a9a06666ff6g|a9apb.@sWYYYAi{^;;^qMUXYJ4@chb2fe7f99aaaa1~cJUUOzjMYXWXYWWErNQkkPYXWXWUUWWWYXSPWYSDQUi+3HYYUQXYYQ}YYQIU,XXWQYXQIYYNWXQYUUYYX3zYX> wWYYWUYYYXUWUXWUv>qRYYYA3GUUxxUXQTYYXXWWWWWWWWSWXXWWUTWTw3{ iNQQIj;^qUWUUUYRt$;xWUUUDKWYSWWWXWWWYUXWXWUWj~|h9aa9h",
"aa0666662g60gh|ag:ba~@;qUXYYWXYYXYUj@@-m|pg2888fa9a000a9]];@;]@]@@-...~...*~4]....'..*...--@4JJjR4]mm....@@@@^F@@..~1***.@.*.~@.@]@-*.*-.~**.a11-@-.-*..*..'*.**p|**@-~**===**-........**...*.@@@$$$$dHRzHTQiAQz~|9~]@@--.*1cm---@.--@@-@@@*-..-;$$^@.@-9a99a999",
"aa006666660200|g26gp|~.-]tjjjjjjn54@-~hao<2f66f6aa06660h9~-]]41'==:&&&(!:!(:8(&((&&&((&(&==='BOOO==p6//=//=2=)B==((&o&&/===/////)=<==/=/&6:&&oo(&=/=(&!!!&:&&&&8o7&/==<6:&&::&=/(&!!&!&&&(&((((/~~-]]@4yUURMHRz;|eo2==[===(:gh)==:&:&/&=(=(&&&:=-]@]]~*9phaa000a",
"aa00666660000000aa666g62=....@@@@--9hh626660000000668866ahhhhaggggggffffffffffffggggggggghh919BU=:777eeeeeeffffggggggggggggggggahhaaaaaaggggg666ggggggfffffffggg88gghha0gfffggaafffffffffffffffghbaph11mJJjtOJj]feefggggfee788fggggggggggffffffghhhhhhag66660000",
"666666666666000099a6687:efgbaccc9aaag66886660999068777886aaa6888600666668888666600000000aa9hh1-.<6f88868888666668888888866666666aa0aa0000606666666666688888866688866aa068878860668888888868866688882666|.'~***]p878666668777786600006666666868860a66a68866886666",
"gggggggggggggggg9hhgfee777786a99pg6666fffggghhhhgfeeeeefgggggfeegggggggggggggggghhhhhhgghh9hhc44hhhhhhhhhhhhhhhhfeeeeeeeeeeeffffggfggfffffffffefgggggggggggggggfeeeffgffeeeeeeff66666ggggggggggfeee78of26209a9h9ggghhhhhggff6ghhggggggggggffffff66ff00eeggeefgff",
"606000000000000099h087777eeefaha688868fff0009h99068e7e8660006eeeg0000g0gg0g0g0g0hh9h90000hh999mm9h9c9hhchh9hhh9hfeeeeeeeefefffffg00000fgfgffffff0000000000000000fe66000feeeeef00000000000000000feee7ee88g86g0gg2099h9hh9a060099990000000606066666878067700e7f0ff",
"6666666000000000990068887886600688fff6660000999a668888860aa0668860600000606060600900000000000aa|00600000000000009999999999999999999999999999999906000000000000000999cc99990099999000000000000006878e878e8fff666g099999990660a99990006666666660006878a077aa870066",
"fgfggggggggggggggg0ggggggggggggg6fff6000ggggggggggffffgghhhhggfffgggggggggggggggggggggffgff6fgggfffffffffffffffghhhhhhhhhhhhhhhhhhhhhhhhhhhhhhhhggggggggggggggggghhhmmchhhghhhchhgggggggggggggggfff6fgf66gf6gg26gghhhhhhgfffgghhggggggfffggggggg6feehheehhfeghgf",
"666600000000000fe78609999h9h90g66f000ghhh0000666000660099999906666666600000000000006688877ee888866666666666688860aaa000666666666666666668ff888886600000000000006ff00h90066886009000000000a0a0a0060666g066g6666gofff00066e777e66000666666666600000086998899689966",
"fffffggggggggggfeeegghcmmmmhhggfggg00hh9hhggffefghggggghhhhhhggfffffgggg00000000ggffffeee77eeeef66ggg60g6gg6ffff666666ffffffffffeeeeeeeeeeee7ee8ffggggggggggggggfffggggffeeeefgggggghhgghhaaaagaahhhaa0gg6gg00g8fffffffeee77eefgggffffffgg6ggaahhgfghhffmmffhhgg"};
